<svg xmlns="http://www.w3.org/2000/svg" x="0px" y="0px"
width="50" height="50"
viewBox="0 0 172 172"
style=" fill:#000000;"><g fill="none" fill-rule="nonzero" stroke="none" stroke-width="1" stroke-linecap="butt" stroke-linejoin="miter" stroke-miterlimit="10" stroke-dasharray="" stroke-dashoffset="0" font-family="none" font-weight="none" font-size="none" text-anchor="none" style="mix-blend-mode: normal"><path d="M0,172v-172h172v172z" fill="none"></path><g fill="#ffffff"><path d="M37.84,17.2v13.76h13.76h13.76v-13.76h-13.76zM65.36,30.96v13.76h13.76v-13.76zM79.12,44.72v13.76h13.76v-13.76zM92.88,44.72h13.76v-13.76h-13.76zM106.64,30.96h13.76h13.76v-13.76h-13.76h-13.76zM134.16,30.96v13.76h13.76v-13.76zM147.92,44.72v13.76v13.76v13.76h13.76v-13.76v-13.76v-13.76zM147.92,86h-13.76v13.76h13.76zM134.16,99.76h-13.76v13.76h13.76zM120.4,113.52h-13.76v13.76h13.76zM106.64,127.28h-13.76v13.76h13.76zM92.88,141.04h-13.76v13.76h13.76zM79.12,141.04v-13.76h-13.76v13.76zM65.36,127.28v-13.76h-13.76v13.76zM51.6,113.52v-13.76h-13.76v13.76zM37.84,99.76v-13.76h-13.76v13.76zM24.08,86v-13.76v-13.76v-13.76h-13.76v13.76v13.76v13.76zM24.08,44.72h13.76v-13.76h-13.76z"></path></g></g></svg>