<svg class="MuiSvgIcon-root MuiSvgIcon-fontSizeMedium css-13ihuxk" focusable="false" viewBox="0 0 24 24" aria-hidden="true" width="24" height="24" fill="none"><path d="M5 19C4.44772 19 4 19.4477 4 20C4 20.5523 4.44772 21 5 21V19ZM15 21C15.5523 21 16 20.5523 16 20C16 19.4477 15.5523 19 15 19V21ZM4.70711 10.2929C4.31658 9.90237 3.68342 9.90237 3.29289 10.2929C2.90237 10.6834 2.90237 11.3166 3.29289 11.7071L4.70711 10.2929ZM9 16L8.29289 16.7071C8.68342 17.0976 9.31658 17.0976 9.70711 16.7071L9 16ZM20.7071 5.70711C21.0976 5.31658 21.0976 4.68342 20.7071 4.29289C20.3166 3.90237 19.6834 3.90237 19.2929 4.29289L20.7071 5.70711ZM5 21H15V19H5V21ZM3.29289 11.7071L8.29289 16.7071L9.70711 15.2929L4.70711 10.2929L3.29289 11.7071ZM9.70711 16.7071L20.7071 5.70711L19.2929 4.29289L8.29289 15.2929L9.70711 16.7071Z" fill="#090A0B"></path></svg>